# xmcd
#
# Track frame offsets:
# 150
# 10800
# 21525
# 35100
# 45825
# 58425
# 68925
# 78750
# 90225
# 100950
# 112050
# 123375
# 133500
# 144075
# 153825
# 164100
# 176550
# 192000
# 203925
# 213975
# 227475
# 242925
#
# Disc length: 3407 seconds
#
#
# Revision: 1
# Processed by: cddbd v1.5.2PL0 Copyright (c) Steve Scherf et al.
# Submitted via: KELLER's_Musik_Katalog 2006 
#
DISCID=2f0d4d16
DTITLE=ARTHUR CONLEY - The Platinum Collection
DYEAR=2007
DGENRE=black music - Soul - Motown
TTITLE0=Sweet Soul Music
TTITLE1=Funky Street
TTITLE2=Ob-La-Di Ob-La-Da
TTITLE3=Shake, Rattle And Roll
TTITLE4=Aunt Dora's Love Soul Shack
TTITLE5=Hearsay
TTITLE6=People Sure Act Funny
TTITLE7=Who's Foolin' Who
TTITLE8=I Got A Feeling
TTITLE9=I Can't Stop (No, No, No)
TTITLE10=Something You Got
TTITLE11=Stuff You Gotta Watch
TTITLE12=That Can't Be My Baby
TTITLE13=Run On
TTITLE14=Shing-A-Ling
TTITLE15=I'm A Lonely Stranger
TTITLE16=Is That You Love
TTITLE17=Speak Her Name
TTITLE18=Take A Step
TTITLE19=Take Me (Just As I Am)
TTITLE20=This Love Of Mine
TTITLE21=Otis Sleeps On
EXTD=Label: Atlantic (RHINO]\nBestellnummer: 8122-79994-6\nFirma: Warner Music UK Ltd. (Import]\n-----\nCelebrating 60 Years Of Atlantic 1968\n\n\n Für freedb bereitgestelt von:\n    KELLER'S Musik-Katalog 2007 2007
EXTT0=
EXTT1=
EXTT2=
EXTT3=
EXTT4=
EXTT5=
EXTT6=
EXTT7=
EXTT8=
EXTT9=
EXTT10=
EXTT11=
EXTT12=
EXTT13=
EXTT14=
EXTT15=
EXTT16=
EXTT17=
EXTT18=
EXTT19=
EXTT20=
EXTT21=
PLAYORDER=
